<?xml version="1.0" encoding="UTF-8" standalone="no"?>
<!-- Created with Inkscape (http://www.inkscape.org/) -->

<svg
   width="423.33334mm"
   height="222.25mm"
   viewBox="0 0 423.33334 222.25"
   version="1.1"
   id="svg1307"
   inkscape:version="1.1 (c68e22c387, 2021-05-23)"
   sodipodi:docname="og.svg"
   xmlns:inkscape="http://www.inkscape.org/namespaces/inkscape"
   xmlns:sodipodi="http://sodipodi.sourceforge.net/DTD/sodipodi-0.dtd"
   xmlns="http://www.w3.org/2000/svg"
   xmlns:svg="http://www.w3.org/2000/svg">
  <sodipodi:namedview
     id="namedview1309"
     pagecolor="#ffffff"
     bordercolor="#666666"
     borderopacity="1.0"
     inkscape:pageshadow="2"
     inkscape:pageopacity="0.0"
     inkscape:pagecheckerboard="0"
     inkscape:document-units="mm"
     showgrid="false"
     fit-margin-top="0"
     fit-margin-left="0"
     fit-margin-right="0"
     fit-margin-bottom="0"
     inkscape:snap-page="true"
     inkscape:zoom="0.38529391"
     inkscape:cx="708.55"
     inkscape:cy="711.14542"
     inkscape:window-width="1920"
     inkscape:window-height="1051"
     inkscape:window-x="-9"
     inkscape:window-y="-9"
     inkscape:window-maximized="1"
     inkscape:current-layer="layer1" />
  <defs
     id="defs1304" />
  <g
     inkscape:label="圖層 1"
     inkscape:groupmode="layer"
     id="layer1"
     transform="translate(0.16146944,43.141186)">
    <g
       id="g9274"
       inkscape:export-filename="C:\Projects\blog\images\meta\og.png"
       inkscape:export-xdpi="214.339"
       inkscape:export-ydpi="214.339">
      <rect
         style="fill:#212230;fill-opacity:1;fill-rule:evenodd;stroke-width:0.0529167;stroke-linecap:square;stroke-dashoffset:1.00157;paint-order:markers fill stroke"
         id="rect1062"
         width="423.33334"
         height="222.25"
         x="-0.16146944"
         y="-43.14119"
         rx="0.23870885"
         ry="1.8885045" />
      <g
         id="g9266">
        <g
           style="fill:none;stroke-width:0.101922"
           id="g839"
           transform="matrix(2.5959213,0,0,2.5959213,141.42158,47.215921)">
          <path
             d="M 1.6582,0 C 0.73965,0 0,0.73965 0,1.6582 v 12.684 c 0,0.91855 0.73965,1.6582 1.6582,1.6582 h 12.684 c 0.91855,0 1.6582,-0.73966 1.6582,-1.6582 V 1.6582 C 16.0004,0.73965 15.26074,0 14.3422,0 Z m 6.5723,2.4219 a 5.5771,5.5771 0 0 1 4.7246,2.6191 l -1.6934,1.2188 -0.79492,0.56836 a 2.5252,2.5252 0 0 0 -2.2363,-1.3535 2.5252,2.5252 0 0 0 -2.5254,2.5254 2.5252,2.5252 0 0 0 2.5254,2.5234 2.5252,2.5252 0 0 0 2.3379,-1.582 l 1.0059,0.45312 1.7734,0.80273 a 5.5771,5.5771 0 0 1 -5.1172,3.3789 5.5771,5.5771 0 0 1 -5.5781,-5.5762 5.5771,5.5771 0 0 1 5.5781,-5.5781 z"
             fill="#5c95ff"
             style="stroke-width:0.0120453;paint-order:markers stroke fill"
             id="path826" />
        </g>
        <text
           xml:space="preserve"
           style="font-style:normal;font-variant:normal;font-weight:normal;font-stretch:normal;font-size:31.6382px;line-height:1.25;font-family:'Microsoft Yi Baiti';-inkscape-font-specification:'Microsoft Yi Baiti';letter-spacing:1.58192px;word-spacing:0px;fill:#000000;fill-opacity:1;stroke:none;stroke-width:0.264582"
           x="187.51662"
           y="79.50827"
           id="text2264"><tspan
             sodipodi:role="line"
             id="tspan2262"
             style="font-style:normal;font-variant:normal;font-weight:bold;font-stretch:normal;font-family:'Yu Gothic UI';-inkscape-font-specification:'Yu Gothic UI Bold';fill:#ffffff;stroke-width:0.264582"
             x="187.51662"
             y="79.50827">Chuan</tspan></text>
      </g>
    </g>
  </g>
</svg>
